#Comment line ignore any data following # character 
#Hierarchical Translation and Rotation (.htr) file 
[Header]	
#Header keywords are followed by a single value 
FileType HTR		#Single word string
DataType HTRS		#Translation followed by rotation and scale data
FileVersion 1		#integer
NumSegments 64		#integer
NumFrames 3		#integer
DataFrameRate 30		#integer, data frame rate in this file
EulerRotationOrder ZYX
CalibrationUnits mm
RotationUnits Degrees
GlobalAxisofGravity Y
BoneLengthAxis Y
ScaleFactor 1.00
[SegmentNames&Hierarchy]
#CHILD	PARENT
Pinger_Root GLOBAL
Pelvis Pinger_Root
L_Hip Pelvis
R_Hip Pelvis
Rear_Leg01 Pelvis
Spine1 Pelvis
L_Leg01 L_Hip
L_Leg02 L_Leg01
L_Leg03 L_Leg02
L_Foot L_Leg03
L_Toe1_01 L_Foot
L_Toe2_01 L_Foot
L_Toe3_01 L_Foot
planeAlignerLeft L_Foot
L_Toe1_02 L_Toe1_01
L_Toe1_03 L_Toe1_02
L_Toe2_02 L_Toe2_01
L_Toe2_03 L_Toe2_02
L_Toe3_02 L_Toe3_01
L_Toe3_03 L_Toe3_02
planeLockWeightLeft planeAlignerLeft
R_Leg01 R_Hip
R_Leg02 R_Leg01
R_Leg03 R_Leg02
R_Foot R_Leg03
planeAlignerRight R_Foot
R_Toe1_01 R_Foot
R_Toe2_01 R_Foot
R_Toe3_01 R_Foot
planeLockWeightRight planeAlignerRight
R_Toe1_02 R_Toe1_01
R_Toe1_03 R_Toe1_02
R_Toe2_02 R_Toe2_01
R_Toe2_03 R_Toe2_02
R_Toe3_02 R_Toe3_01
R_Toe3_03 R_Toe3_02
Rear_Leg02 Rear_Leg01
Rear_Leg03 Rear_Leg02
Rear_Leg04 Rear_Leg03
Rear_Foot Rear_Leg04
planeAlignerCenter Rear_Foot
Rear_Toe1_01 Rear_Foot
Rear_Toe2_01 Rear_Foot
Rear_Toe3_01 Rear_Foot
planeLockWeightCenter planeAlignerCenter
Rear_Toe1_02 Rear_Toe1_01
Rear_Toe1_03 Rear_Toe1_02
Rear_Toe2_02 Rear_Toe2_01
Rear_Toe2_03 Rear_Toe2_02
Rear_Toe3_02 Rear_Toe3_01
Rear_Toe3_03 Rear_Toe3_02
Back_Bone Spine1
Head Spine1
Motor_Bone Back_Bone
Ping_Mechanism Back_Bone
BN_LookIK Head
bottomMouth Head
L_Mouth01 Head
L_mouthFront Head
mouthGun Head
R_Mouth01 Head
R_mouthFront Head
TopMouth Head
weapon_bone Head
[BasePosition]
#SegmentName Tx, Ty, Tz, Rx, Ry, Rz, BoneLength
Pinger_Root 0.000000 0.000000 0.000000 -90.000000 0.000000 0.000000 10.000000 
Pelvis 0.000000 0.000000 0.000000 0.000000 0.000000 0.000000 10.000000 
L_Hip 0.000000 0.000000 0.000000 0.000000 0.000000 0.000000 10.000000 
R_Hip 0.000000 0.000000 0.000000 0.000000 0.000000 0.000000 10.000000 
Rear_Leg01 0.000000 0.000000 0.000000 0.000000 0.000000 0.000000 10.000000 
Spine1 0.000000 0.000000 0.000000 0.000000 0.000000 0.000000 10.000000 
L_Leg01 0.000000 0.000000 0.000000 0.000000 0.000000 0.000000 10.000000 
L_Leg02 0.000000 0.000000 0.000000 0.000000 0.000000 0.000000 10.000000 
L_Leg03 0.000000 0.000000 0.000000 0.000000 0.000000 0.000000 10.000000 
L_Foot 0.000000 0.000000 0.000000 0.000000 0.000000 0.000000 10.000000 
L_Toe1_01 0.000000 0.000000 0.000000 0.000000 0.000000 0.000000 10.000000 
L_Toe2_01 0.000000 0.000000 0.000000 0.000000 0.000000 0.000000 10.000000 
L_Toe3_01 0.000000 0.000000 0.000000 0.000000 0.000000 0.000000 10.000000 
planeAlignerLeft 0.000000 0.000000 0.000000 0.000000 0.000000 0.000000 10.000000 
L_Toe1_02 0.000000 0.000000 0.000000 0.000000 0.000000 0.000000 10.000000 
L_Toe1_03 0.000000 0.000000 0.000000 0.000000 0.000000 0.000000 10.000000 
L_Toe2_02 0.000000 0.000000 0.000000 0.000000 0.000000 0.000000 10.000000 
L_Toe2_03 0.000000 0.000000 0.000000 0.000000 0.000000 0.000000 10.000000 
L_Toe3_02 0.000000 0.000000 0.000000 0.000000 0.000000 0.000000 10.000000 
L_Toe3_03 0.000000 0.000000 0.000000 0.000000 0.000000 0.000000 10.000000 
planeLockWeightLeft 0.000000 0.000000 0.000000 0.000000 0.000000 0.000000 10.000000 
R_Leg01 0.000000 0.000000 0.000000 0.000000 0.000000 0.000000 10.000000 
R_Leg02 0.000000 0.000000 0.000000 0.000000 0.000000 0.000000 10.000000 
R_Leg03 0.000000 0.000000 0.000000 0.000000 0.000000 0.000000 10.000000 
R_Foot 0.000000 0.000000 0.000000 0.000000 0.000000 0.000000 10.000000 
planeAlignerRight 0.000000 0.000000 0.000000 0.000000 0.000000 0.000000 10.000000 
R_Toe1_01 0.000000 0.000000 0.000000 0.000000 0.000000 0.000000 10.000000 
R_Toe2_01 0.000000 0.000000 0.000000 0.000000 0.000000 0.000000 10.000000 
R_Toe3_01 0.000000 0.000000 0.000000 0.000000 0.000000 0.000000 10.000000 
planeLockWeightRight 0.000000 0.000000 0.000000 0.000000 0.000000 0.000000 10.000000 
R_Toe1_02 0.000000 0.000000 0.000000 0.000000 0.000000 0.000000 10.000000 
R_Toe1_03 0.000000 0.000000 0.000000 0.000000 0.000000 0.000000 10.000000 
R_Toe2_02 0.000000 0.000000 0.000000 0.000000 0.000000 0.000000 10.000000 
R_Toe2_03 0.000000 0.000000 0.000000 0.000000 0.000000 0.000000 10.000000 
R_Toe3_02 0.000000 0.000000 0.000000 0.000000 0.000000 0.000000 10.000000 
R_Toe3_03 0.000000 0.000000 0.000000 0.000000 0.000000 0.000000 10.000000 
Rear_Leg02 0.000000 0.000000 0.000000 0.000000 0.000000 0.000000 10.000000 
Rear_Leg03 0.000000 0.000000 0.000000 0.000000 0.000000 0.000000 10.000000 
Rear_Leg04 0.000000 0.000000 0.000000 0.000000 0.000000 0.000000 10.000000 
Rear_Foot 0.000000 0.000000 0.000000 0.000000 0.000000 0.000000 10.000000 
planeAlignerCenter 0.000000 0.000000 0.000000 0.000000 0.000000 0.000000 10.000000 
Rear_Toe1_01 0.000000 0.000000 0.000000 0.000000 0.000000 0.000000 10.000000 
Rear_Toe2_01 0.000000 0.000000 0.000000 0.000000 0.000000 0.000000 10.000000 
Rear_Toe3_01 0.000000 0.000000 0.000000 0.000000 0.000000 0.000000 10.000000 
planeLockWeightCenter 0.000000 0.000000 0.000000 0.000000 0.000000 0.000000 10.000000 
Rear_Toe1_02 0.000000 0.000000 0.000000 0.000000 0.000000 0.000000 10.000000 
Rear_Toe1_03 0.000000 0.000000 0.000000 0.000000 0.000000 0.000000 10.000000 
Rear_Toe2_02 0.000000 0.000000 0.000000 0.000000 0.000000 0.000000 10.000000 
Rear_Toe2_03 0.000000 0.000000 0.000000 0.000000 0.000000 0.000000 10.000000 
Rear_Toe3_02 0.000000 0.000000 0.000000 0.000000 0.000000 0.000000 10.000000 
Rear_Toe3_03 0.000000 0.000000 0.000000 0.000000 0.000000 0.000000 10.000000 
Back_Bone 0.000000 0.000000 0.000000 0.000000 0.000000 0.000000 10.000000 
Head 0.000000 0.000000 0.000000 0.000000 0.000000 0.000000 10.000000 
Motor_Bone 0.000000 0.000000 0.000000 0.000000 0.000000 0.000000 10.000000 
Ping_Mechanism 0.000000 0.000000 0.000000 0.000000 0.000000 0.000000 10.000000 
BN_LookIK 0.000000 0.000000 0.000000 0.000000 0.000000 0.000000 10.000000 
bottomMouth 0.000000 0.000000 0.000000 0.000000 0.000000 0.000000 10.000000 
L_Mouth01 0.000000 0.000000 0.000000 0.000000 0.000000 0.000000 10.000000 
L_mouthFront 0.000000 0.000000 0.000000 0.000000 0.000000 0.000000 10.000000 
mouthGun 0.000000 0.000000 0.000000 0.000000 0.000000 0.000000 10.000000 
R_Mouth01 0.000000 0.000000 0.000000 0.000000 0.000000 0.000000 10.000000 
R_mouthFront 0.000000 0.000000 0.000000 0.000000 0.000000 0.000000 10.000000 
TopMouth 0.000000 0.000000 0.000000 0.000000 0.000000 0.000000 10.000000 
weapon_bone 0.000000 0.000000 0.000000 0.000000 0.000000 0.000000 10.000000 
#Beginning of Data. Separated by tabs
#Fr	Tx	Ty	Tz	Rx	Ry	Rz	SF
[Pinger_Root]
78 0.000000 0.000000 0.000000 -0.000075 -0.000000 -0.000020 0.000000
79 0.000000 0.000000 0.000000 -0.000075 -0.000000 -0.000020 0.000000
80 0.000000 0.000000 0.000000 -0.000075 -0.000000 -0.000020 0.000000
[Pelvis]
78 -0.000020 -359.998657 2470.424561 98.756676 -76.535141 -105.873337 2496.517090
79 0.588870 -346.252380 2483.449463 99.502251 -77.896179 -106.658775 2507.471191
80 2.165947 -298.240906 2520.873291 102.497429 -81.338692 -109.746895 2538.455078
[L_Hip]
78 5.766392 125.831482 872.656799 -93.382317 -57.350319 0.925200 881.701050
79 5.766392 125.831482 872.656799 -94.024696 -57.749931 1.536888 881.701050
80 5.766392 125.831482 872.656799 -95.821541 -58.804413 3.258385 881.701050
[R_Hip]
78 5.765438 125.836372 -872.654907 -119.881348 44.763935 -30.970694 881.699829
79 5.765438 125.836372 -872.654907 -119.612450 45.400105 -30.979511 881.699829
80 5.765438 125.836372 -872.654907 -118.875031 47.121777 -30.974758 881.699829
[Rear_Leg01]
78 -192.298416 -925.602966 -0.001907 -172.818649 3.219098 -111.350784 945.367432
79 -192.298416 -925.602966 -0.001907 -172.807632 3.145432 -111.757233 945.367432
80 -192.298416 -925.602966 -0.001907 -172.739273 2.873986 -112.577805 945.367432
[Spine1]
78 290.604584 5.007505 0.000477 7.796786 -0.543297 45.441879 290.647736
79 290.604584 5.007505 0.000477 7.882064 -0.943300 46.467686 290.647736
80 290.604584 5.007505 0.000477 7.925067 -1.434220 45.499374 290.647736
[L_Leg01]
78 761.932007 -0.002384 -0.069261 137.860321 -86.182632 -131.498093 761.932068
79 761.932007 -0.002384 -0.069261 103.029770 -84.130447 -97.027374 761.932068
80 761.932007 -0.002384 -0.069261 86.976563 -75.378098 -81.302399 761.932068
[L_Leg02]
78 1441.140503 -0.000954 -0.000715 8.235567 -3.467770 -139.366257 1441.140503
79 1441.140503 -0.000954 -0.000715 8.181220 -2.856519 -138.830597 1441.140503
80 1441.140503 -0.000954 -0.000715 7.490057 -1.374880 -135.393219 1441.140503
[L_Leg03]
78 1686.963989 -0.000715 -0.000954 0.047017 -0.013609 97.524361 1686.963989
79 1686.963989 -0.000715 -0.000954 0.029428 -0.010111 101.949181 1686.963989
80 1686.963989 -0.000715 -0.000954 -0.007313 0.005005 112.298904 1686.963989
[L_Foot]
78 3041.570068 -30.715107 11.297464 -25.822075 29.651642 26.696455 3041.746094
79 3041.570068 -30.715107 11.297464 -21.707850 30.174902 25.563309 3041.746094
80 3041.570068 -30.715107 11.297464 -18.668974 31.515497 22.733702 3041.746094
[L_Toe1_01]
78 -188.216690 -224.732346 -21.137953 80.499611 -6.047583 -173.825394 293.899567
79 -188.216690 -224.732346 -21.137953 84.136353 -6.165924 -173.283081 293.899567
80 -188.216690 -224.732346 -21.137953 87.306564 -6.336705 -172.845474 293.899567
[L_Toe2_01]
78 200.746536 -219.926590 148.838394 -79.523468 -18.728115 -53.865944 332.896027
79 200.746536 -219.926590 148.838394 -82.699966 -20.648195 -53.692516 332.896027
80 200.746536 -219.926590 148.838394 -85.312836 -22.494688 -53.445099 332.896027
[L_Toe3_01]
78 188.832520 -219.859131 -191.078659 -115.301598 33.647053 -63.150448 347.140900
79 188.832520 -219.859131 -191.078659 -110.162514 28.063440 -64.861000 347.140900
80 188.832520 -219.859131 -191.078659 -105.996155 23.365866 -65.994217 347.140900
[planeAlignerLeft]
78 5.148315 -536.410095 -36.372448 -112.729530 -86.669273 11.504168 537.666504
79 11.593018 -557.273010 -1.102980 -162.174698 -85.102951 60.968140 557.394714
80 17.703812 -571.618042 31.299803 -178.933258 -82.413872 77.815468 572.747986
[L_Toe1_02]
78 413.761139 0.000477 0.000000 0.001384 -25.928062 0.001384 413.761139
79 413.761139 0.000477 0.000000 0.001384 -25.929483 0.001384 413.761139
80 413.761139 0.000477 0.000000 0.001384 -25.930893 0.001384 413.761139
[L_Toe1_03]
78 464.317322 0.000358 -0.000089 0.003431 49.994812 0.003431 464.317322
79 464.317322 0.000358 -0.000089 0.003496 50.766644 0.003496 464.317322
80 464.317322 0.000358 -0.000089 0.003559 51.493652 0.003559 464.317322
[L_Toe2_02]
78 342.235809 -0.000477 0.000238 0.001184 -75.086975 0.001184 342.235809
79 342.235809 -0.000477 0.000238 0.001184 -74.570137 0.001184 342.235809
80 342.235809 -0.000477 0.000238 0.001185 -74.053276 0.001185 342.235809
[L_Toe2_03]
78 420.210846 -0.000715 0.000000 -179.982025 86.660522 -179.978531 420.210846
79 420.210846 -0.000715 0.000000 -179.960999 88.383591 -179.957489 420.210846
80 420.210846 -0.000715 0.000000 0.000000 89.889854 0.003496 420.210846
[L_Toe3_02]
78 329.270111 0.000954 0.000000 0.001176 -82.188850 0.001176 329.270111
79 329.270111 0.000954 0.000000 0.001177 -81.952599 0.001177 329.270111
80 329.270111 0.000954 0.000000 0.001177 -81.655296 0.001177 329.270111
[L_Toe3_03]
78 439.137451 -0.001907 0.000954 -179.998352 70.687103 -179.994797 439.137451
79 439.137451 -0.001907 0.000954 -179.998047 72.282539 -179.994507 439.137451
80 439.137451 -0.001907 0.000954 -179.997665 73.877930 -179.994141 439.137451
[planeLockWeightLeft]
78 999.998901 0.098133 0.075984 -0.011826 -0.004376 0.005620 999.998962
79 999.998901 0.098135 0.075983 -0.011826 -0.004376 0.005620 999.998962
80 999.998901 0.098137 0.075983 -0.011826 -0.004376 0.005620 999.998962
[R_Leg01]
78 761.455627 -0.001907 -0.000358 55.448677 -53.847225 121.516006 761.455688
79 761.455627 -0.001907 -0.000358 59.311398 -52.499729 118.236160 761.455688
80 761.455627 -0.001907 -0.000358 65.862007 -48.060863 111.325081 761.455688
[R_Leg02]
78 1441.140625 0.000000 -0.000238 -20.322414 0.539292 -114.488983 1441.140625
79 1441.140625 0.000000 -0.000238 -20.169800 -0.126402 -112.761238 1441.140625
80 1441.140625 0.000000 -0.000238 -19.730551 -1.405797 -106.045708 1441.140625
[R_Leg03]
78 1686.963989 0.000954 0.001431 0.047272 -0.021142 122.670128 1686.963989
79 1686.963989 0.000954 0.001431 0.053581 -0.024028 124.628212 1686.963989
80 1686.963989 0.000954 0.001431 0.068138 -0.034893 128.472992 1686.963989
[R_Foot]
78 3041.560059 -30.531288 -11.204481 17.888794 -27.942209 20.786018 3041.734131
79 3041.560059 -30.531288 -11.204481 12.807567 -28.587658 19.866068 3041.734131
80 3041.560059 -30.531288 -11.204481 9.056485 -30.341599 17.155428 3041.734131
[planeAlignerRight]
78 -171.163635 -581.655823 -152.422028 -94.021820 -85.261032 -8.465946 625.182312
79 -163.911743 -585.085327 -194.940033 -59.269310 -82.365646 -42.962112 638.117188
80 -156.501831 -584.303040 -232.937103 -47.006023 -78.897217 -54.900852 648.199463
[R_Toe1_01]
78 -188.383347 -224.864899 21.052242 93.624962 -1.558897 -174.251038 294.101532
79 -188.383347 -224.864899 21.052242 88.969276 -1.298762 -173.695511 294.101532
80 -188.383347 -224.864899 21.052242 84.926819 -1.016825 -173.197037 294.101532
[R_Toe2_01]
78 200.637817 -220.002121 -148.787384 -112.847359 18.610542 -62.746155 332.857574
79 200.637817 -220.002121 -148.787384 -106.395500 22.528915 -62.327179 332.857574
80 200.637817 -220.002121 -148.787384 -101.088989 26.093313 -61.662949 332.857574
[R_Toe3_01]
78 188.606735 -220.092957 191.126343 -68.263374 -27.107454 -66.795296 347.192566
79 188.606735 -220.092957 191.126343 -69.554657 -21.948910 -69.517151 347.192566
80 188.606735 -220.092957 191.126343 -70.880882 -17.523315 -71.389648 347.192566
[planeLockWeightRight]
78 999.999329 0.000000 0.076001 -0.011823 -0.004379 -0.000027 999.999329
79 999.999329 0.000000 0.076001 -0.011823 -0.004379 -0.000027 999.999329
80 999.999329 0.000000 0.076001 -0.011823 -0.004379 -0.000027 999.999329
[R_Toe1_02]
78 413.762085 0.000477 -0.000119 0.001386 -25.662817 0.001386 413.762085
79 413.762085 0.000477 -0.000119 0.001387 -25.536716 0.001387 413.762085
80 413.762085 0.000477 -0.000119 0.001388 -25.410614 0.001388 413.762085
[R_Toe1_03]
78 464.317810 0.000000 0.001088 0.004679 60.932705 0.004679 464.317810
79 464.317810 0.000000 0.001088 0.004946 62.536968 0.004946 464.317810
80 464.317810 0.000000 0.001088 0.005245 64.140602 0.005245 464.317810
[R_Toe2_02]
78 342.234741 -0.000954 0.000238 0.001187 -72.831612 0.001187 342.234741
79 342.234741 -0.000954 0.000238 0.001188 -71.872635 0.001188 342.234741
80 342.234741 -0.000954 0.000238 0.001190 -70.913605 0.001190 342.234741
[R_Toe2_03]
78 420.210846 0.000715 -0.000268 0.040609 86.687668 0.040609 420.210846
79 420.210846 0.000715 -0.000268 0.023300 84.224266 0.023300 420.210846
80 420.210846 0.000715 -0.000268 0.016337 81.760643 0.016337 420.210846
[R_Toe3_02]
78 329.270355 -0.000477 -0.000954 0.001178 -80.525635 0.001178 329.270355
79 329.270355 -0.000477 -0.000954 0.001179 -79.372139 0.001179 329.270355
80 329.270355 -0.000477 -0.000954 0.001180 -78.218491 0.001180 329.270355
[R_Toe3_03]
78 439.137939 0.000238 0.001431 -179.996094 78.337555 -179.992584 439.137939
79 439.137939 0.000238 0.001431 -179.992844 82.594032 -179.989349 439.137939
80 439.137939 0.000238 0.001431 -179.982727 86.538132 -179.979233 439.137939
[Rear_Leg02]
78 1162.777710 -0.029802 0.005960 5.992726 0.452548 -150.606125 1162.777710
79 1162.777710 -0.029802 0.005960 6.012872 0.331741 -149.063263 1162.777710
80 1162.777710 -0.029802 0.005960 6.058405 -0.056138 -143.795975 1162.777710
[Rear_Leg03]
78 607.192505 -0.013351 -0.073195 0.010235 -0.005604 73.760406 607.192505
79 607.192505 -0.013351 -0.073195 0.010235 -0.005604 73.760406 607.192505
80 607.192505 -0.013351 -0.073195 0.010235 -0.005604 73.760406 607.192505
[Rear_Leg04]
78 995.874512 -0.020504 -0.011921 -0.045183 -0.018080 79.799667 995.874573
79 995.874512 -0.020504 -0.011921 -0.045220 -0.017986 80.038414 995.874573
80 995.874512 -0.020504 -0.011921 -0.045184 -0.018077 79.806114 995.874573
[Rear_Foot]
78 3096.176270 -0.067472 -0.041425 -14.783842 81.555099 -154.370605 3096.176270
79 3096.176270 -0.067472 -0.041425 -15.406788 81.638298 -155.902451 3096.176270
80 3096.176270 -0.067472 -0.041425 -16.936487 81.808510 -159.782425 3096.176270
[planeAlignerCenter]
78 -8.684311 -177.470093 -664.501587 12.240773 -0.001473 179.998184 687.846985
79 -8.434410 -168.339828 -671.412048 12.240773 -0.001473 179.998184 692.245300
80 -7.868695 -147.599045 -690.865295 12.240773 -0.001473 179.998184 706.500000
[Rear_Toe1_01]
78 0.653352 83.966492 -371.173737 0.688083 30.808037 91.053398 380.553192
79 0.653352 83.966492 -371.173737 0.678884 31.399902 91.036530 380.553192
80 0.653352 83.966492 -371.173737 0.653730 33.074856 90.989319 380.553192
[Rear_Toe2_01]
78 178.200760 -294.826019 -362.060547 -8.035472 29.315453 -68.037895 499.765686
79 178.200760 -294.826019 -362.060547 -7.968797 29.803988 -67.807198 499.765686
80 178.200760 -294.826019 -362.060547 -7.773375 31.102308 -67.255531 499.765686
[Rear_Toe3_01]
78 -153.359680 -308.780914 -362.060852 3.653579 28.104607 -111.969620 499.952881
79 -153.359680 -308.780914 -362.060852 3.612747 28.694656 -112.149796 499.952881
80 -153.359680 -308.780914 -362.060852 3.492867 30.123102 -112.581764 499.952881
[planeLockWeightCenter]
78 1000.000122 0.000134 0.076250 -0.011814 -0.004373 -0.000015 1000.000122
79 1000.000122 0.000131 0.076250 -0.011814 -0.004373 -0.000015 1000.000122
80 1000.000122 0.000129 0.076250 -0.011814 -0.004373 -0.000015 1000.000122
[Rear_Toe1_02]
78 379.707825 0.194073 0.000477 -0.002649 -32.518173 -0.002649 379.707855
79 379.707825 0.194073 0.000477 -0.002648 -32.628937 -0.002648 379.707855
80 379.707825 0.194073 0.000477 -0.002643 -33.067448 -0.002643 379.707855
[Rear_Toe1_03]
78 500.129700 0.165701 0.000119 -179.977692 86.796555 -179.981186 500.129761
79 500.129700 0.165701 0.000119 -179.949265 88.655350 -179.952759 500.129761
80 500.129700 0.165701 0.000119 -0.017544 86.585854 -0.021043 500.129761
[Rear_Toe2_02]
78 340.494507 0.000238 -0.000954 0.001198 -66.983894 0.001198 340.494507
79 340.494507 0.000238 -0.000954 0.001196 -68.000954 0.001196 340.494507
80 340.494507 0.000238 -0.000954 0.001192 -70.124916 0.001192 340.494507
[Rear_Toe2_03]
78 433.103577 0.000000 0.000238 0.005535 65.517372 0.005535 433.103546
79 433.103577 0.000000 0.000238 0.005896 67.035301 0.005896 433.103546
80 433.103577 0.000000 0.000238 0.006829 70.208801 0.006829 433.103546
[Rear_Toe3_02]
78 340.494141 -0.000358 -0.000477 -0.002392 -62.480824 -0.002392 340.494171
79 340.494141 -0.000358 -0.000477 0.007106 -63.740276 -0.008287 340.494171
80 340.494141 -0.000358 -0.000477 0.004569 -66.328201 -0.003957 340.494171
[Rear_Toe3_03]
78 433.103577 0.001431 -0.000238 -0.000361 59.340553 -0.003987 433.103546
79 433.103577 0.001431 -0.000238 -0.000490 61.009579 -0.004102 433.103546
80 433.103577 0.001431 -0.000238 -0.000819 64.567162 -0.004403 433.103546
[Back_Bone]
78 1312.175781 -701.934692 0.000954 1.393763 0.002023 -96.112709 1488.125488
79 1312.175781 -701.934692 0.000954 1.396013 0.035550 -97.415619 1488.125488
80 1312.175781 -701.934692 0.000954 1.403162 0.136088 -98.994888 1488.125488
[Head]
78 1406.159424 809.709290 0.001431 -1.946478 2.607212 4.460912 1622.625488
79 1406.159424 809.709290 0.001431 -1.945748 2.460314 2.874288 1622.625488
80 1406.159424 809.709290 0.001431 -1.957258 2.085600 -1.082769 1622.625488
[Motor_Bone]
78 1158.364380 -417.834747 0.000477 0.105162 0.231439 -111.717987 1231.419434
79 1158.364380 -417.834747 0.000477 0.095115 0.220922 -110.488579 1231.419434
80 1158.364380 -417.834747 0.000477 0.061766 0.191507 -107.977287 1231.419434
[Ping_Mechanism]
78 1159.718628 -398.385315 -18.038591 0.000103 -0.000053 82.120995 1226.370117
79 1165.810913 -401.654663 -17.163879 0.000103 -0.000053 82.120995 1233.181274
80 1180.250366 -411.474518 -14.541760 0.000103 -0.000053 82.120995 1250.005493
[BN_LookIK]
78 193.241119 1380.371704 -0.002861 0.000000 89.965736 -31.038179 1393.832153
79 193.241119 1380.371704 -0.002861 0.000000 89.965736 -31.038179 1393.832153
80 193.241119 1380.371704 -0.002861 0.000000 89.965736 -31.038179 1393.832153
[bottomMouth]
78 -435.092926 615.759399 -0.000954 -0.000022 0.000016 73.527184 753.966492
79 -435.092926 615.759399 -0.000954 -0.000022 0.000016 73.527184 753.966492
80 -435.092926 615.759399 -0.000954 -0.000022 0.000016 73.527184 753.966492
[L_Mouth01]
78 554.440979 7.658243 838.222046 150.204178 23.759130 109.605339 1005.027161
79 554.440979 7.658243 838.222046 150.204178 23.759130 109.605339 1005.027161
80 554.440979 7.658243 838.222046 150.204178 23.759130 109.605339 1005.027161
[L_mouthFront]
78 551.629089 934.514771 339.150421 0.000081 2.804060 79.119301 1136.941284
79 551.629089 934.514771 339.150421 0.000081 2.804060 79.119301 1136.941284
80 551.629089 934.514771 339.150421 0.000081 2.804060 79.119301 1136.941284
[mouthGun]
78 55.332661 1627.420898 0.000000 0.000023 0.000009 -11.038128 1628.361328
79 55.332661 1627.420898 0.000000 0.000023 0.000009 -11.038128 1628.361328
80 55.332661 1627.420898 0.000000 0.000023 0.000009 -11.038128 1628.361328
[R_Mouth01]
78 554.442383 7.659197 -838.223938 29.795891 -23.759109 109.605331 1005.029541
79 554.442383 7.659197 -838.223938 29.795891 -23.759109 109.605331 1005.029541
80 554.442383 7.659197 -838.223938 29.795891 -23.759109 109.605331 1005.029541
[R_mouthFront]
78 551.629089 934.514282 -339.151367 0.000029 -2.803930 79.119133 1136.941162
79 551.629089 934.514282 -339.151367 0.000029 -2.803930 79.119133 1136.941162
80 551.629089 934.514282 -339.151367 0.000029 -2.803930 79.119133 1136.941162
[TopMouth]
78 461.269867 -56.106091 -0.008583 -0.000059 -0.000268 92.025169 464.669525
79 461.269867 -56.106091 -0.008583 -0.000059 -0.000268 92.025169 464.669525
80 461.269867 -56.106091 -0.008583 -0.000059 -0.000268 92.025169 464.669525
[weapon_bone]
78 -987.239868 1448.372803 0.001431 0.000000 89.965736 -31.038221 1752.833740
79 -987.239868 1448.372803 0.001431 0.000000 89.965736 -31.038221 1752.833740
80 -987.239868 1448.372803 0.001431 0.000000 89.965736 -31.038221 1752.833740
